<svg width="40" height="40" viewBox="0 0 2048 2048" fill="none" xmlns="http://www.w3.org/2000/svg">
  <g clip-path="url(#clip0_12_136)">
    <rect width="2048" height="2048" rx="512" fill="#FFA500"/>
    <path d="M1963.92 559.506L1345.33 992H1704.47H1741.4L2360 559.506L1741.4 127H1704.47H1345.33L1963.92 559.506Z" fill="#262626"/>
    <path d="M1135.75 559.506L517.165 992H876.305H925.242L1543.84 559.506L925.242 127H876.305H517.165L1135.75 559.506Z" fill="#262626"/>
    <path d="M307.586 559.506L-311 992H108.148H145.083L763.679 559.506L145.083 127H108.148H-311L307.586 559.506Z" fill="#262626"/>
    <path d="M303.085 1472.51L921.67 1953H562.531H525.596L-93.0002 1472.51L525.596 992H562.531H921.67L303.085 1472.51Z" fill="#262626"/>
    <path d="M1131.25 1472.51L1749.83 1953H1390.7H1341.76L723.163 1472.51L1341.76 992H1390.7H1749.83L1131.25 1472.51Z" fill="#262626"/>
    <path d="M1959.41 1472.51L2578 1953H2158.85H2121.92L1503.32 1472.51L2121.92 992H2158.85H2578L1959.41 1472.51Z" fill="#262626"/>
    <path d="M2048 960H0V1088H2048V960Z" fill="#262626"/>
    <path d="M1474 891.026H1135V204L575 1109.03H920.5V1843.5L1474 891.026Z" fill="#F40B0B" stroke="#262626" stroke-width="88" stroke-linecap="round" stroke-linejoin="round"/>
  </g>
  <rect x="64" y="64" width="1920" height="1920" rx="448" stroke="#262626" stroke-width="128"/>
  <defs>
    <clipPath id="clip0_12_136">
      <rect width="2048" height="2048" rx="512" fill="white"/>
    </clipPath>
  </defs>
</svg>
